# xmcd
#
# Track frame offsets: 
#        150
#        21892
#        43107
#        55410
#        74307
#        92732
#        104212
#        127700
#        144660
#        159960
#        180887
#        198667
#
# Disc length: 2851 seconds
#
# Revision: 13
# Processed by: cddbd v1.5.2PL0 Copyright (c) Steve Scherf et al.
# Submitted via: ExactAudioCopy v0.99pb5
#
DISCID=a50b210c
DTITLE=Various Artist - R812-03 - Singers And Songwriters - 1974-1975 - CD 2
DYEAR=1999
DGENRE=Pop
TTITLE0=Michael Murphey - Wildfire
TTITLE1=Janis Ian - At seventeen
TTITLE2=Joe Cocker - You are so beautiful
TTITLE3=Hollies - The air that I breathe
TTITLE4=Anne Murray - You won't see me
TTITLE5=Jim Croce - I'll have to say I love you in a song
TTITLE6=John Denver - Sunshine on my shoulders
TTITLE7=Carole King - Jazzman
TTITLE8=Ace - How long
TTITLE9=Phoebe Snow - Poetry man
TTITLE10=Melissa Manchester - Midnight blue
TTITLE11=Amazing Rhythm Aces - Third rate romance
EXTD=
EXTT0=
EXTT1=
EXTT2=
EXTT3=
EXTT4=
EXTT5=
EXTT6=
EXTT7=
EXTT8=
EXTT9=
EXTT10=
EXTT11=
PLAYORDER=
